<svg xmlns="http://www.w3.org/2000/svg" xmlns:xlink="http://www.w3.org/1999/xlink" width="52.07" height="36.88" viewBox="0 0 52.07 36.88">
  <defs>
    <clipPath id="clip-path">
      <rect id="Rectangle_4" data-name="Rectangle 4" width="52.07" height="36.88" transform="translate(708 279)" fill="#a259ff"/>
    </clipPath>
  </defs>
  <g id="Mask_Group_1" data-name="Mask Group 1" transform="translate(-708 -279)" clip-path="url(#clip-path)">
    <path id="adobe-xd-svgrepo-com" d="M31.127.473H6.7A6.693,6.693,0,0,0,0,7.171V30.655a6.693,6.693,0,0,0,6.7,6.7H31.127a6.693,6.693,0,0,0,6.7-6.7V7.171A6.693,6.693,0,0,0,31.127.473ZM36.234,30.04a5.71,5.71,0,0,1-5.705,5.737H7.3a5.731,5.731,0,0,1-5.721-5.721V7.77A5.731,5.731,0,0,1,7.3,2.049H30.513A5.721,5.721,0,0,1,36.234,7.77V30.04ZM14.957,17.731,19.37,26.21c.079.126.032.252-.095.252H16.533a.309.309,0,0,1-.331-.2c-1.009-2.08-2.033-4.161-3.089-6.4h-.032c-.946,2.112-1.986,4.334-2.995,6.415a.3.3,0,0,1-.284.173H7.2c-.158,0-.173-.126-.095-.221L11.426,18,7.25,9.677a.127.127,0,0,1,.095-.221h2.711a.248.248,0,0,1,.284.173c.993,2.08,2,4.224,2.947,6.32h.032c.914-2.08,1.923-4.24,2.9-6.3.079-.126.126-.2.284-.2h2.537c.126,0,.173.095.095.221l-4.177,8.069ZM20.142,20.3c0-3.672,2.443-6.541,6.32-6.541a6.989,6.989,0,0,1,.82.032V9.614a.158.158,0,0,1,.158-.158h2.49c.126,0,.158.047.158.126V24.051a11.226,11.226,0,0,0,.079,1.545c0,.095-.032.126-.126.173a9.388,9.388,0,0,1-4.035.914c-3.42.016-5.863-2.1-5.863-6.383Zm7.14-4.035a2.384,2.384,0,0,0-.914-.158c-1.986,0-3.373,1.529-3.373,4.066,0,2.9,1.418,4.066,3.2,4.066a2.973,2.973,0,0,0,1.087-.173Z" transform="translate(715.122 278.527)" fill="#a259ff"/>
  </g>
</svg>
