<svg xmlns="http://www.w3.org/2000/svg" xmlns:xlink="http://www.w3.org/1999/xlink" width="52.07" height="36.88" viewBox="0 0 52.07 36.88">
  <defs>
    <clipPath id="clip-path">
      <rect id="Rectangle_4" data-name="Rectangle 4" width="52.07" height="36.88" transform="translate(708 279)" fill="#a259ff"/>
    </clipPath>
  </defs>
  <g id="Mask_Group_1" data-name="Mask Group 1" transform="translate(-708 -279)" clip-path="url(#clip-path)">
    <path id="android-svgrepo-com" d="M11.117,30.528a1.754,1.754,0,0,0,1.753,1.749h2v4.956a2.248,2.248,0,1,0,4.495,0v-4.96h3.5v4.956a2.248,2.248,0,1,0,4.495,0V32.273h2a1.754,1.754,0,0,0,1.753-1.749V14.257h-20v16.27Zm14.7-24.7,1.848-2.675a.34.34,0,0,0-.062-.469.334.334,0,0,0-.457.107L25.226,5.573a11.509,11.509,0,0,0-8.3,0L15.011,2.795a.33.33,0,0,0-.457-.107.338.338,0,0,0-.062.469L16.34,5.832a8.707,8.707,0,0,0-5.26,6.981h20a8.741,8.741,0,0,0-5.268-6.985Zm-8.96,4.219A1.107,1.107,0,1,1,17.962,8.94,1.107,1.107,0,0,1,16.855,10.047Zm8.578,0A1.107,1.107,0,1,1,26.539,8.94,1.107,1.107,0,0,1,25.432,10.047Zm9.195,4.145a2.263,2.263,0,0,0-2.247,2.28v8.907a2.248,2.248,0,1,0,4.495,0V16.468a2.254,2.254,0,0,0-2.247-2.276Zm-27.107,0a2.263,2.263,0,0,0-2.247,2.28v8.907a2.248,2.248,0,1,0,4.495,0V16.468A2.262,2.262,0,0,0,7.52,14.192Z" transform="translate(712.962 276.367)" fill="#a259ff"/>
  </g>
</svg>
