<svg xmlns="http://www.w3.org/2000/svg" xmlns:xlink="http://www.w3.org/1999/xlink" width="52.07" height="36.88" viewBox="0 0 52.07 36.88">
  <defs>
    <clipPath id="clip-path">
      <rect id="Rectangle_4" data-name="Rectangle 4" width="52.07" height="36.88" transform="translate(708 279)" fill="#f24e1e"/>
    </clipPath>
  </defs>
  <g id="Mask_Group_1" data-name="Mask Group 1" transform="translate(-708 -279)" clip-path="url(#clip-path)">
    <g id="adobe-photoshop-svgrepo-com" transform="translate(715.595 279)">
      <path id="Path_3" data-name="Path 3" d="M24.43,24.973a8.187,8.187,0,0,1-3.587-1.012L20.1,26.942a9.43,9.43,0,0,0,4.328.935c3.83,0,5.808-1.834,5.808-4.335-.029-1.969-1.1-3.261-3.645-4.132-1.638-.58-2.153-.909-2.153-1.537,0-.683.571-1.1,1.583-1.1a6.6,6.6,0,0,1,2.9.77l.739-2.877A8.967,8.967,0,0,0,25.88,13.9c-3.314,0-5.45,1.892-5.45,4.383-.029,1.592,1.038,3.1,3.813,4.028,1.554.525,1.966.851,1.966,1.535S25.684,24.973,24.43,24.973Z" fill="#f24e1e"/>
      <path id="Path_4" data-name="Path 4" d="M10.774,21a10.6,10.6,0,0,0,1.422.074,8.55,8.55,0,0,0,5.995-1.937,5.871,5.871,0,0,0,1.7-4.383,5.36,5.36,0,0,0-1.976-4.273C16.692,9.49,14.858,9,12.28,9a34.454,34.454,0,0,0-5.637.384V27.606h4.132V21Zm.007-8.683a6.845,6.845,0,0,1,1.715-.168c2.088,0,3.261,1.01,3.271,2.7,0,1.894-1.379,3.016-3.6,3.016a6.735,6.735,0,0,1-1.388-.1V12.32Z" fill="#f24e1e"/>
      <path id="Path_5" data-name="Path 5" d="M0,0V36.88H36.88V0ZM34.6,34.6H2.281V2.281H34.6Z" fill="#f24e1e"/>
    </g>
  </g>
</svg>
